<svg xmlns="http://www.w3.org/2000/svg" viewBox="0 0 64 64" aria-label="Brainlyx owl icon">
  <defs>
    <linearGradient id="accent" x1="0" y1="0" x2="1" y2="1">
      <stop offset="0%" stop-color="#38BDF8"/>
      <stop offset="100%" stop-color="#22C55E"/>
    </linearGradient>
  </defs>

  <!-- Background (optional – usuń jeśli chcesz transparent) -->
  <rect x="2" y="2" width="60" height="60" rx="14" fill="#020617"/>

  <!-- Owl head -->
  <path d="M32 10
           C18 10 10 22 10 34
           C10 48 22 54 32 54
           C42 54 54 48 54 34
           C54 22 46 10 32 10 Z"
        fill="#020617"/>

  <!-- Ears -->
  <path d="M16 10 L24 22 L10 24 Z" fill="#020617"/>
  <path d="M48 10 L40 22 L54 24 Z" fill="#020617"/>

  <!-- Eyes -->
  <circle cx="24" cy="32" r="7" fill="url(#accent)"/>
  <circle cx="40" cy="32" r="7" fill="url(#accent)"/>

  <!-- Pupils -->
  <circle cx="24" cy="32" r="3" fill="#020617"/>
  <circle cx="40" cy="32" r="3" fill="#020617"/>

  <!-- Beak -->
  <path d="M32 38 L28 46 L36 46 Z" fill="url(#accent)"/>
</svg>
